<?xml version="1.0" encoding="UTF-8" standalone="no"?>
<svg
   width="24"
   height="24"
   viewBox="0 0 24 24"
   version="1.1"
   id="svg1"
   sodipodi:docname="github.svg"
   inkscape:version="1.3.2 (091e20ef0f, 2023-11-25, custom)"
   xmlns:inkscape="http://www.inkscape.org/namespaces/inkscape"
   xmlns:sodipodi="http://sodipodi.sourceforge.net/DTD/sodipodi-0.dtd"
   xmlns="http://www.w3.org/2000/svg"
   xmlns:svg="http://www.w3.org/2000/svg">
  <defs
     id="defs1" />
  <sodipodi:namedview
     id="namedview1"
     pagecolor="#ffffff"
     bordercolor="#000000"
     borderopacity="0.25"
     inkscape:showpageshadow="2"
     inkscape:pageopacity="0.0"
     inkscape:pagecheckerboard="true"
     inkscape:deskcolor="#d1d1d1"
     inkscape:zoom="34.583333"
     inkscape:cx="11.985542"
     inkscape:cy="12"
     inkscape:window-width="1872"
     inkscape:window-height="1043"
     inkscape:window-x="0"
     inkscape:window-y="0"
     inkscape:window-maximized="1"
     inkscape:current-layer="svg1" />
  <rect
     style="fill:#ffffff"
     id="rect1"
     width="16.587877"
     height="16.46837"
     x="3.7010918"
     y="3.7087727" />
  <path
     d="M19 0h-14c-2.761 0-5 2.239-5 5v14c0 2.761 2.239 5 5 5h14c2.762 0 5-2.239 5-5v-14c0-2.761-2.238-5-5-5zm-4.466 19.59c-.405.078-.534-.171-.534-.384v-2.195c0-.747-.262-1.233-.55-1.481 1.782-.198 3.654-.875 3.654-3.947 0-.874-.312-1.588-.823-2.147.082-.202.356-1.016-.079-2.117 0 0-.671-.215-2.198.82-.64-.18-1.324-.267-2.004-.271-.68.003-1.364.091-2.003.269-1.528-1.035-2.2-.82-2.2-.82-.434 1.102-.16 1.915-.077 2.118-.512.56-.824 1.273-.824 2.147 0 3.064 1.867 3.751 3.645 3.954-.229.2-.436.552-.508 1.07-.457.204-1.614.557-2.328-.666 0 0-.423-.768-1.227-.825 0 0-.78-.01-.055.487 0 0 .525.246.889 1.17 0 0 .463 1.428 2.688.944v1.489c0 .211-.129.459-.528.385-3.18-1.057-5.472-4.056-5.472-7.59 0-4.419 3.582-8 8-8s8 3.581 8 8c0 3.533-2.289 6.531-5.466 7.59z"
     id="path1" />
</svg>
